# Blender 5.1.0
# www.blender.org
mtllib floor.mtl
o Plane
v -8.000000 0.005155 8.000000
v 8.000000 0.050057 8.000000
v -8.000000 -0.022218 -8.000000
v 8.000000 0.158172 -8.000000
v -8.000000 0.109586 0.000000
v 0.000000 0.106718 8.000000
v 8.000000 0.261872 0.000000
v 0.000000 0.189562 -8.000000
v 0.000000 0.200810 0.000000
v -8.000000 0.360442 4.000000
v 4.000000 0.030589 8.000000
v 8.000000 0.178138 -4.000000
v -4.000000 0.181231 -8.000000
v -8.000000 0.200507 -4.000000
v -4.000000 0.082648 8.000000
v 8.000000 0.116489 4.000000
v 4.000000 0.119206 -8.000000
v 0.000000 0.255512 -4.000000
v 0.000000 0.031570 4.000000
v -4.000000 0.048682 0.000000
v 4.000000 -0.087020 0.000000
v 4.000000 0.249197 4.000000
v -4.000000 0.141195 4.000000
v -4.000000 0.098702 -4.000000
v 4.000000 0.044925 -4.000000
v -8.000000 0.096488 6.000000
v 6.000000 0.349976 8.000000
v 8.000000 0.109987 -6.000000
v -6.000000 0.116332 -8.000000
v -8.000000 0.314535 -2.000000
v -2.000000 0.171069 8.000000
v 8.000000 0.160053 2.000000
v 2.000000 0.358060 -8.000000
v 0.000000 0.226416 -6.000000
v 0.000000 0.292660 2.000000
v -6.000000 0.032987 0.000000
v 2.000000 0.132515 0.000000
v -8.000000 0.227238 2.000000
v 2.000000 0.154083 8.000000
v 8.000000 -0.027715 -2.000000
v -2.000000 0.175103 -8.000000
v -8.000000 0.098343 -6.000000
v -6.000000 -0.001827 8.000000
v 8.000000 0.191177 6.000000
v 6.000000 0.086728 -8.000000
v 0.000000 0.158254 -2.000000
v 0.000000 0.211018 6.000000
v -2.000000 0.127047 0.000000
v 6.000000 0.076407 0.000000
v 4.000000 0.274880 2.000000
v 4.000000 0.160487 6.000000
v 2.000000 0.360147 4.000000
v 6.000000 0.248386 4.000000
v -4.000000 0.245560 2.000000
v -4.000000 0.243904 6.000000
v -6.000000 0.154068 4.000000
v -2.000000 0.062165 4.000000
v -4.000000 0.120949 -6.000000
v -4.000000 0.237529 -2.000000
v -6.000000 0.216230 -4.000000
v -2.000000 -0.061024 -4.000000
v 4.000000 0.179839 -6.000000
v 4.000000 -0.104678 -2.000000
v 2.000000 0.082621 -4.000000
v 6.000000 0.198742 -4.000000
v 6.000000 0.022471 -2.000000
v 2.000000 0.059949 -2.000000
v 2.000000 0.266128 -6.000000
v -2.000000 0.156355 -2.000000
v -6.000000 0.057038 -2.000000
v -6.000000 0.072511 -6.000000
v -2.000000 0.184542 6.000000
v -6.000000 0.103355 6.000000
v -6.000000 0.204915 2.000000
v 6.000000 0.245115 6.000000
v 2.000000 0.172144 6.000000
v 2.000000 0.186689 2.000000
v 6.000000 0.225237 2.000000
v -2.000000 0.295144 2.000000
v -2.000000 0.086379 -6.000000
v 6.000000 0.185421 -6.000000
vn 0.0010 0.9999 -0.0126
vn -0.0386 0.9992 0.0130
vn -0.0178 0.9977 -0.0648
vn -0.0301 0.9995 -0.0117
vn 0.0326 0.9941 -0.1034
vn 0.0306 0.9971 0.0690
vn 0.0464 0.9988 -0.0178
vn -0.0140 0.9957 -0.0918
vn -0.0319 0.9994 -0.0130
vn 0.0010 0.9972 -0.0752
vn -0.0283 0.9993 0.0260
vn -0.0157 0.9999 0.0051
vn -0.0793 0.9964 -0.0299
vn 0.0810 0.9967 0.0078
vn 0.0505 0.9978 0.0430
vn 0.0176 0.9953 0.0951
vn -0.0698 0.9943 0.0810
vn -0.0724 0.9972 -0.0178
vn -0.0337 0.9958 -0.0855
vn 0.0676 0.9973 0.0299
vn 0.0416 0.9987 -0.0287
vn 0.0956 0.9952 -0.0224
vn -0.0520 0.9986 0.0137
vn 0.0333 0.9987 0.0386
vn 0.0309 0.9964 0.0793
vn 0.0599 0.9943 -0.0885
vn 0.0007 0.9985 0.0545
vn -0.0189 0.9998 -0.0033
vn 0.0603 0.9981 0.0113
vn 0.0831 0.9949 0.0570
vn -0.0489 0.9974 0.0531
vn -0.0282 0.9994 -0.0192
vn 0.0025 0.9981 -0.0614
vn 0.0173 0.9994 -0.0303
vn 0.0345 0.9978 -0.0561
vn -0.0073 0.9990 0.0436
vn 0.0095 0.9995 0.0294
vn 0.0497 0.9957 0.0783
vn -0.0000 0.9988 0.0491
vn -0.0560 0.9962 0.0664
vn 0.0247 0.9971 -0.0722
vn 0.0571 0.9982 -0.0206
vn -0.0069 0.9992 0.0388
vn -0.0209 0.9995 0.0230
vn -0.1005 0.9949 0.0062
vn 0.0881 0.9961 0.0090
vn -0.0722 0.9974 0.0021
vn -0.0021 0.9995 0.0306
vn 0.0337 0.9987 0.0369
vn 0.0435 0.9984 -0.0364
vn -0.0556 0.9982 0.0219
vn 0.0057 0.9993 -0.0369
vn -0.0282 0.9916 -0.1266
vn 0.0126 0.9999 0.0006
vn 0.0492 0.9988 0.0051
vn -0.0318 0.9954 -0.0908
vn 0.0073 0.9964 0.0840
vn 0.0082 0.9924 0.1226
vn 0.0102 0.9993 0.0372
vn 0.0485 0.9979 0.0423
vn -0.1134 0.9931 0.0294
vn 0.0067 0.9992 -0.0398
vn -0.0398 0.9987 0.0304
vn 0.0240 0.9995 -0.0204
vt 2.000000 2.000000
vt 2.500000 2.000000
vt 2.500000 2.500000
vt 2.000000 2.500000
vt 0.000000 2.000000
vt 0.500000 2.000000
vt 0.500000 2.500000
vt 0.000000 2.500000
vt 0.000000 0.000000
vt 0.500000 0.000000
vt 0.500000 0.500000
vt 0.000000 0.500000
vt 2.000000 0.000000
vt 2.500000 0.000000
vt 2.500000 0.500000
vt 2.000000 0.500000
vt 1.000000 0.000000
vt 1.500000 0.000000
vt 1.500000 0.500000
vt 1.000000 0.500000
vt 1.000000 -1.000000
vt 1.500000 -1.000000
vt 1.500000 -0.500000
vt 1.000000 -0.500000
vt 2.000000 -1.000000
vt 2.500000 -1.000000
vt 2.500000 -0.500000
vt 2.000000 -0.500000
vt -1.000000 0.000000
vt -0.500000 0.000000
vt -0.500000 0.500000
vt -1.000000 0.500000
vt -1.000000 -1.000000
vt -0.500000 -1.000000
vt -0.500000 -0.500000
vt -1.000000 -0.500000
vt 0.000000 -1.000000
vt 0.500000 -1.000000
vt 0.500000 -0.500000
vt 0.000000 -0.500000
vt -1.000000 2.000000
vt -0.500000 2.000000
vt -0.500000 2.500000
vt -1.000000 2.500000
vt -1.000000 1.000000
vt -0.500000 1.000000
vt -0.500000 1.500000
vt -1.000000 1.500000
vt 0.000000 1.000000
vt 0.500000 1.000000
vt 0.500000 1.500000
vt 0.000000 1.500000
vt 1.000000 2.000000
vt 1.500000 2.000000
vt 1.500000 2.500000
vt 1.000000 2.500000
vt 1.000000 1.000000
vt 1.500000 1.000000
vt 1.500000 1.500000
vt 1.000000 1.500000
vt 2.000000 1.000000
vt 2.500000 1.000000
vt 2.500000 1.500000
vt 2.000000 1.500000
vt -1.500000 1.000000
vt -1.500000 1.500000
vt -1.500000 0.500000
vt -1.500000 2.000000
vt -1.500000 2.500000
vt -0.500000 -1.500000
vt 0.000000 -1.500000
vt 0.500000 -1.500000
vt -1.500000 -1.000000
vt -1.500000 -0.500000
vt -1.500000 -1.500000
vt -1.000000 -1.500000
vt -1.500000 0.000000
vt 1.500000 -1.500000
vt 2.000000 -1.500000
vt 2.500000 -1.500000
vt 1.000000 -1.500000
s 0
usemtl Grass
f 81/1/1 28/2/1 4/3/1 45/4/1
f 80/5/2 34/6/2 8/7/2 41/8/2
f 79/9/3 35/10/3 9/11/3 48/12/3
f 78/13/4 32/14/4 7/15/4 49/16/4
f 77/17/5 50/18/5 21/19/5 37/20/5
f 76/21/6 51/22/6 22/23/6 52/24/6
f 75/25/7 44/26/7 16/27/7 53/28/7
f 74/29/8 54/30/8 20/31/8 36/32/8
f 73/33/9 55/34/9 23/35/9 56/36/9
f 72/37/10 47/38/10 19/39/10 57/40/10
f 71/41/11 58/42/11 13/43/11 29/44/11
f 70/45/12 59/46/12 24/47/12 60/48/12
f 69/49/13 46/50/13 18/51/13 61/52/13
f 68/53/14 62/54/14 17/55/14 33/56/14
f 67/57/15 63/58/15 25/59/15 64/60/15
f 66/61/16 40/62/16 12/63/16 65/64/16
f 63/58/17 66/61/17 65/64/17 25/59/17
f 21/19/18 49/16/18 66/61/18 63/58/18
f 49/16/19 7/15/19 40/62/19 66/61/19
f 46/50/20 67/57/20 64/60/20 18/51/20
f 9/11/21 37/20/21 67/57/21 46/50/21
f 37/20/22 21/19/22 63/58/22 67/57/22
f 34/6/23 68/53/23 33/56/23 8/7/23
f 18/51/24 64/60/24 68/53/24 34/6/24
f 64/60/25 25/59/25 62/54/25 68/53/25
f 59/46/26 69/49/26 61/52/26 24/47/26
f 20/31/27 48/12/27 69/49/27 59/46/27
f 48/12/28 9/11/28 46/50/28 69/49/28
f 30/65/29 70/45/29 60/48/29 14/66/29
f 5/67/30 36/32/30 70/45/30 30/65/30
f 36/32/31 20/31/31 59/46/31 70/45/31
f 42/68/32 71/41/32 29/44/32 3/69/32
f 14/66/33 60/48/33 71/41/33 42/68/33
f 60/48/34 24/47/34 58/42/34 71/41/34
f 55/34/35 72/37/35 57/40/35 23/35/35
f 15/70/36 31/71/36 72/37/36 55/34/36
f 31/71/37 6/72/37 47/38/37 72/37/37
f 26/73/38 73/33/38 56/36/38 10/74/38
f 1/75/39 43/76/39 73/33/39 26/73/39
f 43/76/40 15/70/40 55/34/40 73/33/40
f 38/77/41 74/29/41 36/32/41 5/67/41
f 10/74/42 56/36/42 74/29/42 38/77/42
f 56/36/43 23/35/43 54/30/43 74/29/43
f 51/22/44 75/25/44 53/28/44 22/23/44
f 11/78/45 27/79/45 75/25/45 51/22/45
f 27/79/46 2/80/46 44/26/46 75/25/46
f 47/38/47 76/21/47 52/24/47 19/39/47
f 6/72/48 39/81/48 76/21/48 47/38/48
f 39/81/49 11/78/49 51/22/49 76/21/49
f 35/10/50 77/17/50 37/20/50 9/11/50
f 19/39/51 52/24/51 77/17/51 35/10/51
f 52/24/52 22/23/52 50/18/52 77/17/52
f 50/18/53 78/13/53 49/16/53 21/19/53
f 22/23/54 53/28/54 78/13/54 50/18/54
f 53/28/55 16/27/55 32/14/55 78/13/55
f 54/30/56 79/9/56 48/12/56 20/31/56
f 23/35/57 57/40/57 79/9/57 54/30/57
f 57/40/58 19/39/58 35/10/58 79/9/58
f 58/42/59 80/5/59 41/8/59 13/43/59
f 24/47/60 61/52/60 80/5/60 58/42/60
f 61/52/61 18/51/61 34/6/61 80/5/61
f 62/54/62 81/1/62 45/4/62 17/55/62
f 25/59/63 65/64/63 81/1/63 62/54/63
f 65/64/64 12/63/64 28/2/64 81/1/64
